<svg id="fireball" enable-background="new 0 0 300 300" height="512" viewBox="0 0 300 300" width="512" xmlns="http://www.w3.org/2000/svg"><g><path d="m114.029 78.5c2.501 0 4.53-2.028 4.53-4.529 0-2.502-2.028-4.53-4.53-4.53s-4.53 2.028-4.53 4.53c.001 2.501 2.029 4.529 4.53 4.529z"/><path d="m73.201 70.512c.781.781 1.805 1.172 2.828 1.172s2.047-.391 2.828-1.172l2.829-2.829 2.829 2.829c.781.781 1.805 1.172 2.828 1.172s2.047-.391 2.828-1.172c1.562-1.562 1.562-4.096 0-5.656l-2.829-2.828 2.829-2.828c1.562-1.561 1.562-4.094 0-5.656s-4.094-1.562-5.656 0l-2.829 2.829-2.829-2.829c-1.562-1.562-4.094-1.562-5.656 0s-1.562 4.096 0 5.656l2.829 2.828-2.829 2.828c-1.562 1.56-1.562 4.093 0 5.656z"/><path d="m214.172 217.543c-1.562-1.562-4.094-1.562-5.656 0l-2.829 2.829-2.829-2.829c-1.562-1.562-4.094-1.562-5.656 0s-1.562 4.096 0 5.656l2.829 2.828-2.829 2.828c-1.562 1.561-1.562 4.094 0 5.656.781.781 1.805 1.172 2.828 1.172s2.047-.391 2.828-1.172l2.829-2.829 2.829 2.829c.781.781 1.805 1.172 2.828 1.172s2.047-.391 2.828-1.172c1.562-1.562 1.562-4.096 0-5.656l-2.829-2.828 2.829-2.828c1.562-1.56 1.562-4.094 0-5.656z"/><path d="m248.029 187.971c-6.617 0-12 5.383-12 12s5.383 12 12 12 12-5.383 12-12-5.383-12-12-12zm0 16c-2.205 0-4-1.795-4-4s1.795-4 4-4 4 1.795 4 4-1.795 4-4 4z"/><path d="m185.24 144.393-7.832-1.566 52.645-68.439c1.125-1.463 1.104-3.504-.049-4.941-1.156-1.441-3.145-1.908-4.812-1.123l-36.736 17.143v-10.692c0-1.545-.891-2.953-2.287-3.615-1.395-.664-3.051-.461-4.246.52l-55.691 45.564v-14.186c0-1.617-.975-3.076-2.469-3.695-1.498-.619-3.217-.279-4.359.867l-63.641 63.641c-21.055 21.053-21.055 55.312 0 76.367 10.527 10.527 24.355 15.791 38.184 15.791s27.656-5.264 38.184-15.791l44.527-44.527c1.049-1.047 1.432-2.588.994-4.006-.436-1.416-1.619-2.475-3.074-2.752l-18.74-3.568 31.562-34.365c.979-1.062 1.305-2.572.857-3.945s-1.601-2.399-3.017-2.682zm-40.156 40.873c-.982 1.068-1.309 2.586-.852 3.963s1.623 2.4 3.049 2.672l18.375 3.498-39.184 39.184c-17.936 17.936-47.119 17.936-65.055 0-17.934-17.938-17.934-47.119 0-65.055l56.812-56.812v12.971c0 1.545.891 2.953 2.287 3.615 1.389.656 3.049.455 4.246-.52l55.691-45.564v8.529c0 1.367.697 2.639 1.852 3.373s2.602.828 3.84.252l27.566-12.865-46.568 60.541c-.844 1.096-1.061 2.551-.576 3.844.486 1.295 1.605 2.246 2.961 2.518l7.172 1.436z"/><path d="m135.266 196.045-19.375 3.764 6.318-18.957c.438-1.316.164-2.764-.725-3.828-.887-1.064-2.266-1.594-3.637-1.396l-13.391 1.912 9.268-27.801c.586-1.76-.113-3.693-1.691-4.668-1.58-.975-3.621-.734-4.932.574l-39.6 39.598c-12.475 12.477-12.475 32.779 0 45.256 6.238 6.238 14.434 9.357 22.629 9.357 8.193 0 16.389-3.119 22.627-9.357.027-.027.057-.057.084-.086l26.1-27.699c1.189-1.264 1.43-3.15.592-4.672-.84-1.522-2.572-2.341-4.267-1.997zm-28.205 28.838c-9.359 9.312-24.555 9.303-33.902-.041-9.355-9.357-9.355-24.586 0-33.943l27.619-27.617-5.957 17.867c-.438 1.316-.164 2.764.725 3.828.887 1.064 2.26 1.602 3.637 1.396l13.391-1.912-6.438 19.314c-.449 1.35-.148 2.836.789 3.904.941 1.072 2.375 1.572 3.77 1.287l13.908-2.701z"/><path d="m150.24 124.393-24 12c-1.355.678-2.211 2.062-2.211 3.578v12c0 1.232.568 2.395 1.539 3.152.709.555 1.578.848 2.461.848.324 0 .65-.039.971-.119l16-4c1.246-.312 2.266-1.203 2.744-2.395l8-20c.615-1.543.215-3.305-1.006-4.43-1.222-1.127-3.011-1.373-4.498-.634zm-9.166 20.193-9.045 2.262v-4.404l12.379-6.189z"/><path d="m147.059 160.09-16 4c-2.143.535-3.445 2.707-2.91 4.852.455 1.816 2.086 3.029 3.877 3.029.322 0 .648-.037.975-.119l16-4c2.143-.535 3.445-2.707 2.91-4.852-.536-2.143-2.706-3.451-4.852-2.91z"/><path d="m170.857 118.799 8-8c1.562-1.562 1.562-4.094 0-5.656s-4.094-1.562-5.656 0l-8 8c-1.562 1.562-1.562 4.094 0 5.656.781.781 1.805 1.172 2.828 1.172s2.047-.391 2.828-1.172z"/><path d="m220.83 101.57-24 32c-.52.693-.801 1.535-.801 2.4v16c0 1.516.855 2.9 2.211 3.578.566.283 1.18.422 1.789.422.85 0 1.693-.271 2.4-.801l16-12c.764-.572 1.297-1.398 1.504-2.332l8-36c.41-1.838-.521-3.715-2.232-4.502-1.719-.782-3.74-.269-4.871 1.235zm-8.385 36.088-8.416 6.312v-6.666l12.072-16.096z"/><path d="m198.996 183.836c.342.09.688.135 1.033.135.967 0 1.916-.352 2.658-1.01l36-32c1.498-1.334 1.779-3.572.654-5.232s-3.301-2.227-5.102-1.336l-40 20c-1.779.891-2.635 2.955-2.006 4.844l4 12c.427 1.275 1.464 2.251 2.763 2.599zm11.772-18.762-8.861 7.877-.984-2.955z"/><path d="m140.027 95.971c1.104 0 2.201-.453 2.992-1.342l32-36c1.467-1.652 1.318-4.18-.332-5.648-1.656-1.469-4.18-1.32-5.648.332l-32 36c-1.467 1.652-1.318 4.18.332 5.648.764.678 1.711 1.01 2.656 1.01z"/><path d="m193.691 75.215c.697.504 1.518.756 2.338.756.846 0 1.689-.268 2.4-.801l32-24c1.377-1.033 1.939-2.83 1.395-4.465-.545-1.633-2.072-2.734-3.795-2.734h-24c-1.723 0-3.25 1.102-3.795 2.734l-8 24c-.552 1.66.037 3.488 1.457 4.51zm13.221-23.244h9.117l-12.156 9.117z"/><path d="m229.201 134.799c.781.781 1.805 1.172 2.828 1.172s2.047-.391 2.828-1.172l20-20c1.562-1.562 1.562-4.094 0-5.656s-4.094-1.562-5.656 0l-20 20c-1.562 1.562-1.562 4.093 0 5.656z"/></g></svg>